<?xml version="1.0" encoding="UTF-8" standalone="no"?>
<!DOCTYPE svg PUBLIC "-//W3C//DTD SVG 1.1//EN" "http://www.w3.org/Graphics/SVG/1.1/DTD/svg11.dtd">
<svg version="1.1" xmlns="http://www.w3.org/2000/svg" xmlns:xlink="http://www.w3.org/1999/xlink" preserveAspectRatio="xMidYMid meet" style="enable-background:new 0 0 32 32;" viewBox="0 0 32 32" width="32" height="32"><defs><path d="M249.34 68.12C259.96 61.73 273.75 65.17 280.14 75.79C292.39 96.18 317.58 138.1 329.84 158.49C336.22 169.12 332.78 182.91 322.16 189.29C276.57 216.69 159.03 287.33 113.43 314.73C102.81 321.11 89.02 317.67 82.63 307.05C70.38 286.66 45.19 244.74 32.94 224.35C26.55 213.72 29.99 199.94 40.61 193.55C86.21 166.15 203.75 95.52 249.34 68.12Z" id="azhE1jZ6L"></path><path d="M116.69 241.49C116.69 252.89 107.44 262.15 96.03 262.15C84.63 262.15 75.37 252.89 75.37 241.49C75.37 230.08 84.63 220.83 96.03 220.83C107.44 220.83 116.69 230.08 116.69 241.49Z" id="aP3oFVg5u"></path><path d="M418.02 180.6C428.64 174.21 442.43 177.65 448.81 188.27C461.07 208.66 486.26 250.58 498.51 270.97C504.9 281.6 501.46 295.38 490.84 301.77C445.24 329.17 327.7 399.81 282.11 427.2C271.49 433.59 257.7 430.15 251.31 419.53C239.06 399.14 213.87 357.22 201.61 336.83C195.23 326.2 198.67 312.42 209.29 306.03C254.88 278.63 372.42 207.99 418.02 180.6Z" id="ers3D9f"></path><path d="M285.37 353.97C285.37 365.37 276.11 374.63 264.71 374.63C253.31 374.63 244.05 365.37 244.05 353.97C244.05 342.56 253.31 333.31 264.71 333.31C276.11 333.31 285.37 342.56 285.37 353.97Z" id="a1KmHBZpqh"></path><path d="M432.15 380.68C442.77 374.29 456.56 377.73 462.95 388.35C475.2 408.74 500.39 450.67 512.65 471.05C519.03 481.68 515.59 495.47 504.97 501.85C459.38 529.25 341.84 599.89 296.24 627.29C285.62 633.67 271.83 630.24 265.44 619.61C253.19 599.22 228 557.3 215.75 536.91C209.36 526.29 212.8 512.5 223.42 506.11C269.01 478.71 386.56 408.08 432.15 380.68Z" id="d2xYSLSmKh"></path><path d="M299.5 554.05C299.5 565.45 290.25 574.71 278.84 574.71C267.44 574.71 258.18 565.45 258.18 554.05C258.18 542.65 267.44 533.39 278.84 533.39C290.25 533.39 299.5 542.65 299.5 554.05Z" id="a1wBsr1Rs9"></path></defs><g><g><g><g><filter id="shadow1222273" x="20.73" y="55.91" width="322.32" height="272.03" filterUnits="userSpaceOnUse" primitiveUnits="userSpaceOnUse"><feFlood></feFlood><feComposite in2="SourceAlpha" operator="in"></feComposite><feGaussianBlur stdDeviation="1"></feGaussianBlur><feOffset dx="1" dy="1" result="afterOffset"></feOffset><feFlood flood-color="#000000" flood-opacity="0.5"></feFlood><feComposite in2="afterOffset" operator="in"></feComposite><feMorphology operator="dilate" radius="1"></feMorphology><feComposite in2="SourceAlpha" operator="out"></feComposite></filter><path d="M249.34 68.12C259.96 61.73 273.75 65.17 280.14 75.79C292.39 96.18 317.58 138.1 329.84 158.49C336.22 169.12 332.78 182.91 322.16 189.29C276.57 216.69 159.03 287.33 113.43 314.73C102.81 321.11 89.02 317.67 82.63 307.05C70.38 286.66 45.19 244.74 32.94 224.35C26.55 213.72 29.99 199.94 40.61 193.55C86.21 166.15 203.75 95.52 249.34 68.12Z" id="b2J9IrxKrO" fill="white" fill-opacity="1" filter="url(#shadow1222273)"></path></g><use xlink:href="#azhE1jZ6L" opacity="1" fill="#4a6694" fill-opacity="1"></use><g><use xlink:href="#azhE1jZ6L" opacity="1" fill-opacity="0" stroke="#3b3b3b" stroke-width="1" stroke-opacity="1"></use></g><g><filter id="shadow5329133" x="20.73" y="55.91" width="322.32" height="272.03" filterUnits="userSpaceOnUse" primitiveUnits="userSpaceOnUse"><feFlood></feFlood><feComposite in2="SourceAlpha" operator="out"></feComposite><feGaussianBlur stdDeviation="1"></feGaussianBlur><feOffset dx="1" dy="1" result="afterOffset"></feOffset><feFlood flood-color="#151515" flood-opacity="0.8"></feFlood><feComposite in2="afterOffset" operator="in"></feComposite><feMorphology operator="dilate" radius="1"></feMorphology><feComposite in2="SourceAlpha" operator="in"></feComposite></filter><path d="M249.34 68.12C259.96 61.73 273.75 65.17 280.14 75.79C292.39 96.18 317.58 138.1 329.84 158.49C336.22 169.12 332.78 182.91 322.16 189.29C276.57 216.69 159.03 287.33 113.43 314.73C102.81 321.11 89.02 317.67 82.63 307.05C70.38 286.66 45.19 244.74 32.94 224.35C26.55 213.72 29.99 199.94 40.61 193.55C86.21 166.15 203.75 95.52 249.34 68.12Z" id="b24WlgGYun" fill="white" fill-opacity="1" filter="url(#shadow5329133)"></path></g></g><g><g><filter id="shadow3961534" x="66.37" y="211.83" width="60.32" height="60.32" filterUnits="userSpaceOnUse" primitiveUnits="userSpaceOnUse"><feFlood></feFlood><feComposite in2="SourceAlpha" operator="in"></feComposite><feGaussianBlur stdDeviation="1"></feGaussianBlur><feOffset dx="1" dy="1" result="afterOffset"></feOffset><feFlood flood-color="#000000" flood-opacity="0.5"></feFlood><feComposite in2="afterOffset" operator="in"></feComposite><feMorphology operator="dilate" radius="1"></feMorphology><feComposite in2="SourceAlpha" operator="out"></feComposite></filter><path d="M116.69 241.49C116.69 252.89 107.44 262.15 96.03 262.15C84.63 262.15 75.37 252.89 75.37 241.49C75.37 230.08 84.63 220.83 96.03 220.83C107.44 220.83 116.69 230.08 116.69 241.49Z" id="b4QbRJZG1p" fill="white" fill-opacity="1" filter="url(#shadow3961534)"></path></g><use xlink:href="#aP3oFVg5u" opacity="1" fill="#2c2c2c" fill-opacity="1"></use><g><use xlink:href="#aP3oFVg5u" opacity="1" fill-opacity="0" stroke="#333333" stroke-width="1" stroke-opacity="1"></use></g></g><g><g><filter id="shadow8327391" x="189.4" y="168.39" width="322.32" height="272.03" filterUnits="userSpaceOnUse" primitiveUnits="userSpaceOnUse"><feFlood></feFlood><feComposite in2="SourceAlpha" operator="in"></feComposite><feGaussianBlur stdDeviation="1"></feGaussianBlur><feOffset dx="1" dy="1" result="afterOffset"></feOffset><feFlood flood-color="#000000" flood-opacity="0.5"></feFlood><feComposite in2="afterOffset" operator="in"></feComposite><feMorphology operator="dilate" radius="1"></feMorphology><feComposite in2="SourceAlpha" operator="out"></feComposite></filter><path d="M418.02 180.6C428.64 174.21 442.43 177.65 448.81 188.27C461.07 208.66 486.26 250.58 498.51 270.97C504.9 281.6 501.46 295.38 490.84 301.77C445.24 329.17 327.7 399.81 282.11 427.2C271.49 433.59 257.7 430.15 251.31 419.53C239.06 399.14 213.87 357.22 201.61 336.83C195.23 326.2 198.67 312.42 209.29 306.03C254.88 278.63 372.42 207.99 418.02 180.6Z" id="isz5zyVqK" fill="white" fill-opacity="1" filter="url(#shadow8327391)"></path></g><use xlink:href="#ers3D9f" opacity="1" fill="#4a6694" fill-opacity="1"></use><g><use xlink:href="#ers3D9f" opacity="1" fill-opacity="0" stroke="#3b3b3b" stroke-width="1" stroke-opacity="1"></use></g><g><filter id="shadow8661857" x="189.4" y="168.39" width="322.32" height="272.03" filterUnits="userSpaceOnUse" primitiveUnits="userSpaceOnUse"><feFlood></feFlood><feComposite in2="SourceAlpha" operator="out"></feComposite><feGaussianBlur stdDeviation="1"></feGaussianBlur><feOffset dx="1" dy="1" result="afterOffset"></feOffset><feFlood flood-color="#151515" flood-opacity="0.8"></feFlood><feComposite in2="afterOffset" operator="in"></feComposite><feMorphology operator="dilate" radius="1"></feMorphology><feComposite in2="SourceAlpha" operator="in"></feComposite></filter><path d="M418.02 180.6C428.64 174.21 442.43 177.65 448.81 188.27C461.07 208.66 486.26 250.58 498.51 270.97C504.9 281.6 501.46 295.38 490.84 301.77C445.24 329.17 327.7 399.81 282.11 427.2C271.49 433.59 257.7 430.15 251.31 419.53C239.06 399.14 213.87 357.22 201.61 336.83C195.23 326.2 198.67 312.42 209.29 306.03C254.88 278.63 372.42 207.99 418.02 180.6Z" id="b1LACpj0od" fill="white" fill-opacity="1" filter="url(#shadow8661857)"></path></g></g><g><g><filter id="shadow12086532" x="235.05" y="324.31" width="60.32" height="60.32" filterUnits="userSpaceOnUse" primitiveUnits="userSpaceOnUse"><feFlood></feFlood><feComposite in2="SourceAlpha" operator="in"></feComposite><feGaussianBlur stdDeviation="1"></feGaussianBlur><feOffset dx="1" dy="1" result="afterOffset"></feOffset><feFlood flood-color="#000000" flood-opacity="0.5"></feFlood><feComposite in2="afterOffset" operator="in"></feComposite><feMorphology operator="dilate" radius="1"></feMorphology><feComposite in2="SourceAlpha" operator="out"></feComposite></filter><path d="M285.37 353.97C285.37 365.37 276.11 374.63 264.71 374.63C253.31 374.63 244.05 365.37 244.05 353.97C244.05 342.56 253.31 333.31 264.71 333.31C276.11 333.31 285.37 342.56 285.37 353.97Z" id="blBvdSPZT" fill="white" fill-opacity="1" filter="url(#shadow12086532)"></path></g><use xlink:href="#a1KmHBZpqh" opacity="1" fill="#262626" fill-opacity="1"></use><g><use xlink:href="#a1KmHBZpqh" opacity="1" fill-opacity="0" stroke="#333333" stroke-width="1" stroke-opacity="1"></use></g></g><g><g><filter id="shadow9449319" x="203.54" y="368.47" width="322.32" height="272.03" filterUnits="userSpaceOnUse" primitiveUnits="userSpaceOnUse"><feFlood></feFlood><feComposite in2="SourceAlpha" operator="in"></feComposite><feGaussianBlur stdDeviation="1"></feGaussianBlur><feOffset dx="1" dy="1" result="afterOffset"></feOffset><feFlood flood-color="#000000" flood-opacity="0.5"></feFlood><feComposite in2="afterOffset" operator="in"></feComposite><feMorphology operator="dilate" radius="1"></feMorphology><feComposite in2="SourceAlpha" operator="out"></feComposite></filter><path d="M432.15 380.68C442.77 374.29 456.56 377.73 462.95 388.35C475.2 408.74 500.39 450.67 512.65 471.05C519.03 481.68 515.59 495.47 504.97 501.85C459.38 529.25 341.84 599.89 296.24 627.29C285.62 633.67 271.83 630.24 265.44 619.61C253.19 599.22 228 557.3 215.75 536.91C209.36 526.29 212.8 512.5 223.42 506.11C269.01 478.71 386.56 408.08 432.15 380.68Z" id="ixFMJtVpI" fill="white" fill-opacity="1" filter="url(#shadow9449319)"></path></g><use xlink:href="#d2xYSLSmKh" opacity="1" fill="#4a6694" fill-opacity="1"></use><g><use xlink:href="#d2xYSLSmKh" opacity="1" fill-opacity="0" stroke="#3b3b3b" stroke-width="1" stroke-opacity="1"></use></g><g><filter id="shadow2731429" x="203.54" y="368.47" width="322.32" height="272.03" filterUnits="userSpaceOnUse" primitiveUnits="userSpaceOnUse"><feFlood></feFlood><feComposite in2="SourceAlpha" operator="out"></feComposite><feGaussianBlur stdDeviation="1"></feGaussianBlur><feOffset dx="1" dy="1" result="afterOffset"></feOffset><feFlood flood-color="#151515" flood-opacity="0.8"></feFlood><feComposite in2="afterOffset" operator="in"></feComposite><feMorphology operator="dilate" radius="1"></feMorphology><feComposite in2="SourceAlpha" operator="in"></feComposite></filter><path d="M432.15 380.68C442.77 374.29 456.56 377.73 462.95 388.35C475.2 408.74 500.39 450.67 512.65 471.05C519.03 481.68 515.59 495.47 504.97 501.85C459.38 529.25 341.84 599.89 296.24 627.29C285.62 633.67 271.83 630.24 265.44 619.61C253.19 599.22 228 557.3 215.75 536.91C209.36 526.29 212.8 512.5 223.42 506.11C269.01 478.71 386.56 408.08 432.15 380.68Z" id="d9xHJn0WV5" fill="white" fill-opacity="1" filter="url(#shadow2731429)"></path></g></g><g><g><filter id="shadow13742415" x="249.18" y="524.39" width="60.32" height="60.32" filterUnits="userSpaceOnUse" primitiveUnits="userSpaceOnUse"><feFlood></feFlood><feComposite in2="SourceAlpha" operator="in"></feComposite><feGaussianBlur stdDeviation="1"></feGaussianBlur><feOffset dx="1" dy="1" result="afterOffset"></feOffset><feFlood flood-color="#000000" flood-opacity="0.5"></feFlood><feComposite in2="afterOffset" operator="in"></feComposite><feMorphology operator="dilate" radius="1"></feMorphology><feComposite in2="SourceAlpha" operator="out"></feComposite></filter><path d="M299.5 554.05C299.5 565.45 290.25 574.71 278.84 574.71C267.44 574.71 258.18 565.45 258.18 554.05C258.18 542.65 267.44 533.39 278.84 533.39C290.25 533.39 299.5 542.65 299.5 554.05Z" id="hNKnQZphl" fill="white" fill-opacity="1" filter="url(#shadow13742415)"></path></g><use xlink:href="#a1wBsr1Rs9" opacity="1" fill="#292929" fill-opacity="1"></use><g><use xlink:href="#a1wBsr1Rs9" opacity="1" fill-opacity="0" stroke="#333333" stroke-width="1" stroke-opacity="1"></use></g></g></g></g></svg>
